<svg height="1502" width="720" xmlns="http://www.w3.org/2000/svg">
<rect height="1502" fill="#555" width="720"></rect>
<text fill="#7f7" font-family="Courier New" font-size="12" xml:space="preserve">
<tspan x="10" y="26"></tspan>

<tspan x="10" y="42">\x1b[35m[MODE_BUILD=buildApp]\x1b[0m - 2019-09-15T16:33:25.508Z - npm-testing /home/travis/build\</tspan>
<tspan x="10" y="58">/kaizhu256/node-swgg</tspan>

<tspan x="10" y="74"></tspan>

<tspan x="10" y="90"></tspan>

<tspan x="10" y="106">buildApp - merged test-report from file /home/travis/build/kaizhu256/node-swgg/tmp/build/test-re\</tspan>
<tspan x="10" y="122">port.json</tspan>

<tspan x="10" y="138">&gt; http-server listening on port 47521</tspan>

<tspan x="10" y="154">db - dropping database ...</tspan>

<tspan x="10" y="170"></tspan>

<tspan x="10" y="186">buildApp - merged test-report from file /home/travis/build/kaizhu256/node-swgg/tmp/build/test-re\</tspan>
<tspan x="10" y="202">port.json</tspan>

<tspan x="10" y="218">local-function - unused (README.md) local.onEventDomDb</tspan>

<tspan x="10" y="234">jslint - 372ms /home/travis/build/kaizhu256/node-swgg/README.md</tspan>

<tspan x="10" y="250">jslint - 1ms /home/travis/build/kaizhu256/node-swgg/assets.swgg.swagger.petstore.json</tspan>

<tspan x="10" y="266">db - seeding dbTable File ...</tspan>

<tspan x="10" y="282">db - seeding dbTable Pet ...</tspan>

<tspan x="10" y="298">db - seeding dbTable Order ...</tspan>

<tspan x="10" y="314">db - seeding dbTable User ...</tspan>

<tspan x="10" y="330">jslint - 864ms /home/travis/build/kaizhu256/node-swgg/lib.swgg.js</tspan>

<tspan x="10" y="346">jslint - 21ms /home/travis/build/kaizhu256/node-swgg/npm_scripts.sh</tspan>

<tspan x="10" y="362">jslint - 0ms /home/travis/build/kaizhu256/node-swgg/package.json</tspan>

<tspan x="10" y="378">db - seeding dbTable File ...</tspan>

<tspan x="10" y="394">db - seeding dbTable Pet ...</tspan>

<tspan x="10" y="410">db - seeding dbTable Order ...</tspan>

<tspan x="10" y="426">db - seeding dbTable User ...</tspan>

<tspan x="10" y="442">db - seeding dbTable TestCrud ...</tspan>

<tspan x="10" y="458">db loaded from tmp/storage.test</tspan>

<tspan x="10" y="474">jslint - 481ms /home/travis/build/kaizhu256/node-swgg/test.js</tspan>

<tspan x="10" y="490">testRunDefault - 10099 ms - testCase pending - testCase_buildApp_default ...</tspan>

<tspan x="10" y="506">http-server listening on port 47550</tspan>

<tspan x="10" y="522">db - seeding dbTable File ...</tspan>

<tspan x="10" y="538">db - seeding dbTable Pet ...</tspan>

<tspan x="10" y="554">db - seeding dbTable Order ...</tspan>

<tspan x="10" y="570">db - seeding dbTable User ...</tspan>

<tspan x="10" y="586">db - seeding dbTable File ...</tspan>

<tspan x="10" y="602">db - seeding dbTable Pet ...</tspan>

<tspan x="10" y="618">db - seeding dbTable Order ...</tspan>

<tspan x="10" y="634">db - seeding dbTable User ...</tspan>

<tspan x="10" y="650">db - seeding dbTable TestCrud ...</tspan>

<tspan x="10" y="666">db - importing dbTable File ...</tspan>

<tspan x="10" y="682">db - importing dbTable Pet ...</tspan>

<tspan x="10" y="698">db - importing dbTable Order ...</tspan>

<tspan x="10" y="714">db - importing dbTable User ...</tspan>

<tspan x="10" y="730">db - seeding dbTable File ...</tspan>

<tspan x="10" y="746">db - seeding dbTable Pet ...</tspan>

<tspan x="10" y="762">db - seeding dbTable Order ...</tspan>

<tspan x="10" y="778">db - seeding dbTable User ...</tspan>

<tspan x="10" y="794">db - importing dbTable File ...</tspan>

<tspan x="10" y="810">db - importing dbTable Order ...</tspan>

<tspan x="10" y="826">db - importing dbTable Pet ...</tspan>

<tspan x="10" y="842">db - importing dbTable User ...</tspan>

<tspan x="10" y="858">db loaded from tmp/storage.undefined</tspan>

<tspan x="10" y="874">db - seeding dbTable File ...</tspan>

<tspan x="10" y="890">db - seeding dbTable Pet ...</tspan>

<tspan x="10" y="906">db - seeding dbTable Order ...</tspan>

<tspan x="10" y="922">db - seeding dbTable User ...</tspan>

<tspan x="10" y="938">db - seeding dbTable TestCrud ...</tspan>

<tspan x="10" y="954">db - importing dbTable File ...</tspan>

<tspan x="10" y="970">db - importing dbTable Pet ...</tspan>

<tspan x="10" y="986">db - importing dbTable Order ...</tspan>

<tspan x="10" y="1002">db - importing dbTable User ...</tspan>

<tspan x="10" y="1018">db - importing dbTable File ...</tspan>

<tspan x="10" y="1034">db - importing dbTable Order ...</tspan>

<tspan x="10" y="1050">db - importing dbTable Pet ...</tspan>

<tspan x="10" y="1066">db - importing dbTable User ...</tspan>

<tspan x="10" y="1082">db loaded from tmp/storage.test</tspan>

<tspan x="10" y="1098">testRunDefault - 15140 ms - testCase pending - testCase_buildApp_default ...</tspan>

<tspan x="10" y="1114">testRunDefault - 15168 ms - [node test-case 1 of 1 passed] - testCase_buildApp_default</tspan>

<tspan x="10" y="1130"></tspan>

<tspan x="10" y="1146">buildApp - merged test-report from file /home/travis/build/kaizhu256/node-swgg/tmp/build/test-re\</tspan>
<tspan x="10" y="1162">port.json</tspan>

<tspan x="10" y="1178"></tspan>

<tspan x="10" y="1194">-------------------------------------------------------</tspan>

<tspan x="10" y="1210">| test-report - buildApidoc - node - linux v12.10.0 - 2019-09-15T16:33:18.148Z</tspan>

<tspan x="10" y="1226">|   15169 ms            0 failed        1 passed      |</tspan>

<tspan x="10" y="1242">-------------------------------------------------------</tspan>

<tspan x="10" y="1258">| test-report - npmTest - browser - / - Mozilla/5.0 (X11; Linux x86_64) AppleWebKit/537.36 (KHTM\</tspan>
<tspan x="10" y="1274">L, like Gecko) HeadlessChrome/77.0.3865.75 Safari/537.36 - 2019-09-15T16:33:05.775Z</tspan>

<tspan x="10" y="1290">|    2009 ms            0 failed       32 passed      |</tspan>

<tspan x="10" y="1306">-------------------------------------------------------</tspan>

<tspan x="10" y="1322">| test-report - npmTest - node - linux v12.10.0 - 2019-09-15T16:32:58.388Z</tspan>

<tspan x="10" y="1338">|   13687 ms            0 failed       37 passed      |</tspan>

<tspan x="10" y="1354">-------------------------------------------------------</tspan>

<tspan x="10" y="1370"></tspan>

<tspan x="10" y="1386">created test-report file /home/travis/build/kaizhu256/node-swgg/tmp/build/test-report.html</tspan>

<tspan x="10" y="1402"></tspan>

<tspan x="10" y="1418"></tspan>

<tspan x="10" y="1434">buildApp - 0 failed tests</tspan>

<tspan x="10" y="1450"></tspan>

<tspan x="10" y="1466"></tspan>

<tspan x="10" y="1482">\x1b[35m[MODE_BUILD=buildApp]\x1b[0m - 2019-09-15T16:33:36.301Z - EXIT_CODE - 0</tspan>

</text>
</svg>
