<svg height="6078" width="720" xmlns="http://www.w3.org/2000/svg">
<rect height="6078" fill="#555" width="720"></rect>
<text fill="#7f7" font-family="Courier New" font-size="12" xml:space="preserve">
<tspan x="10" y="26">2019-09-15 22:37:54 +0000</tspan>

<tspan x="10" y="42">[build clean]</tspan>

<tspan x="10" y="58"></tspan>

<tspan x="10" y="74">2019-09-15 17:04:44 -0500</tspan>

<tspan x="10" y="90">[npm publish] - npm publish 2019.9.14</tspan>

<tspan x="10" y="106">- add replace-string-operation to function templateRender</tspan>

<tspan x="10" y="122">- merge polyfills into assets.example.begin.js</tspan>

<tspan x="10" y="138">- create function eventEmitterCreate</tspan>

<tspan x="10" y="154">- merge class _http.IncomingMessage, _http.ServerResponse into function _http.request</tspan>

<tspan x="10" y="170"></tspan>

<tspan x="10" y="186">2019-09-09 02:12:45 -0500</tspan>

<tspan x="10" y="202">- jslint - remove unexpected_a hacks</tspan>

<tspan x="10" y="218">- jslint - migrate from let-declaration to var-declaration</tspan>

<tspan x="10" y="234">- inline lib.puppeteer.js into assets.app.js</tspan>

<tspan x="10" y="250">- remove electron dependency</tspan>

<tspan x="10" y="266">- revamp function local.ajaxProgressUpdate with window.domElementAjaxProgress1</tspan>

<tspan x="10" y="282">- jslint - remove ternary-operator/newline comment preceding bra</tspan>

<tspan x="10" y="298"></tspan>

<tspan x="10" y="314">2019-08-21 02:08:10 -0500</tspan>

<tspan x="10" y="330">- jslint - remove allow-method-chain-newline hack</tspan>

<tspan x="10" y="346"></tspan>

<tspan x="10" y="362">2019-08-19 00:19:34 -0500</tspan>

<tspan x="10" y="378">- jslint - upgrade to jslint edition 2019.8.3</tspan>

<tspan x="10" y="394">- rename coverage-hack to hack-istanbul, gotoNext to gotoNext, gotoState to gotoState, jslint-ha\</tspan>
<tspan x="10" y="410">ck to hack-jslint</tspan>

<tspan x="10" y="426">- istanbul - switch parser from esprima to acorn v6.3.0</tspan>

<tspan x="10" y="442"></tspan>

<tspan x="10" y="458">2019-08-12 01:44:37 -0500</tspan>

<tspan x="10" y="474">- shorten name event to evt</tspan>

<tspan x="10" y="490">- jslint - refactor files to 80 chr column-limit</tspan>

<tspan x="10" y="506">- rename function local.domElementRender to local.domFragmentRender</tspan>

<tspan x="10" y="522">- shorten name element to elem, option to opt, error to err, request to req, response to res</tspan>

<tspan x="10" y="538"></tspan>

<tspan x="10" y="554">2019-02-20 02:03:20 -0600</tspan>

<tspan x="10" y="570">[npm publish] - npm publish 2019.2.20</tspan>

<tspan x="10" y="586">- split function domOnEventDelegate into domOnEventDelegate, domOnEventResetOutput</tspan>

<tspan x="10" y="602">- add input-type=number</tspan>

<tspan x="10" y="618">- revamp ui event-handling with window.domOnEventDelegateDict</tspan>

<tspan x="10" y="634">- split function jslintAndPrint -&gt; jslintAndPrint, jslintAutofix, jslintUtility2</tspan>

<tspan x="10" y="650">- add function local.objectAssignDefault</tspan>

<tspan x="10" y="666">- upgrade to jslint commit-de413767154641f490d6e96185e525255cca5f7e (v2018.11.14)</tspan>

<tspan x="10" y="682"></tspan>

<tspan x="10" y="698">2018-11-15 00:49:55 +0800</tspan>

<tspan x="10" y="714">[npm publish] - npm publish 2018.11.14</tspan>

<tspan x="10" y="730">- refactor files with new jslint (v2018.10.26)</tspan>

<tspan x="10" y="746">- jslint - replace ",$s/^ *".*"\n *+ ".*"\(\n *+ ".*"\)*/(&amp;)/gc"</tspan>

<tspan x="10" y="762">- jslint - unexpected_a \(</tspan>

<tspan x="10" y="778">- jslint - replace instanceof -&gt; Object.prototype.toString.call</tspan>

<tspan x="10" y="794">- jslint - replace var self -&gt; that</tspan>

<tspan x="10" y="810">- jslint - unconst and unlet</tspan>

<tspan x="10" y="826">- jslint - prioritize fatal jslint-errors</tspan>

<tspan x="10" y="842">- jslint - merge function jslintAndPrintConditional -&gt; jslintAndPrint</tspan>

<tspan x="10" y="858">- jslint-autofix - braket</tspan>

<tspan x="10" y="874">- jslint-autofix - parenthesize open-statements</tspan>

<tspan x="10" y="890">- jslint-autofix - prefix-operator</tspan>

<tspan x="10" y="906">- jslint-autofix - parenthesize rgx</tspan>

<tspan x="10" y="922">- jslint-autofix - local-function</tspan>

<tspan x="10" y="938">- jslint-autofix - add autofix button to live web-demo</tspan>

<tspan x="10" y="954">- jslint-autofix - embedded ```javascript```, &lt;\script\&gt;, &lt;\style\&gt;</tspan>

<tspan x="10" y="970">- jslint-autofix - tweak to run before JSLint in function jslintAndPrint</tspan>

<tspan x="10" y="986">- update function uiEventDelegate to use dom-property data-event</tspan>

<tspan x="10" y="1002"></tspan>

<tspan x="10" y="1018">2018-09-08 21:13:22 +0700</tspan>

<tspan x="10" y="1034">[npm publish] - npm publish 2018.9.8</tspan>

<tspan x="10" y="1050">- prepare for jslint v2018.05.14</tspan>

<tspan x="10" y="1066">- update function buildLib to add section 'local functions - builtin' and remove duplicate local\</tspan>
<tspan x="10" y="1082"> functions</tspan>

<tspan x="10" y="1098">- merge env var modeTest and utility2_modeTestRun -&gt; local.global.utility2_modeTest</tspan>

<tspan x="10" y="1114">- merge function onResetXxx -&gt; utility2_onReadyXxx</tspan>

<tspan x="10" y="1130">- revamp bootstrap-mechanism before running tests</tspan>

<tspan x="10" y="1146">- revamp event-handling function uiEventDelegate</tspan>

<tspan x="10" y="1162">- integrate function db.onEventDomDb with utility2_onReadyBefore</tspan>

<tspan x="10" y="1178">- cleanup base64 &lt;-&gt; buffer helpers</tspan>

<tspan x="10" y="1194"></tspan>

<tspan x="10" y="1210">2018-08-17 14:00:18 +0700</tspan>

<tspan x="10" y="1226">[npm publish] - npm publish 2018.8.17</tspan>

<tspan x="10" y="1242">- add swaggerJson param x-swgg-buttonDatabase</tspan>

<tspan x="10" y="1258">- do not require following nodejs builtins by default: console, constants, module, process, puny\</tspan>
<tspan x="10" y="1274">code</tspan>

<tspan x="10" y="1290">- add benchmark analytics domOnEventWindowOnloadTimeElapsed</tspan>

<tspan x="10" y="1306">- add BigInt-support for jslint and istanbul</tspan>

<tspan x="10" y="1322">- migrate from modeJs -&gt; isBrowser</tspan>

<tspan x="10" y="1338">- add validator semanticPaths3</tspan>

<tspan x="10" y="1354"></tspan>

<tspan x="10" y="1370">2018-06-19 11:58:56 -0500</tspan>

<tspan x="10" y="1386">[npm publish] - npm publish 2018.6.16</tspan>

<tspan x="10" y="1402">- add sample testAudio1, testImage1, testVideo1 for file-upload api</tspan>

<tspan x="10" y="1418">- fix default description for tags</tspan>

<tspan x="10" y="1434">- add better test audio/image for file-upload api</tspan>

<tspan x="10" y="1450">- allow submit-override in ui, in spite of validation-errors</tspan>

<tspan x="10" y="1466">- revamp function buildLib</tspan>

<tspan x="10" y="1482"></tspan>

<tspan x="10" y="1498">2018-04-22 03:26:21 +0800</tspan>

<tspan x="10" y="1514">[npm publish] - npm publish v2018.4.21</tspan>

<tspan x="10" y="1530">- add semantic validators from https://github.com/swagger-api/swagger-editor/tree/v3.1.20/src/pl\</tspan>
<tspan x="10" y="1546">ugins/validation/semantic-validators/validators</tspan>

<tspan x="10" y="1562">- add function swaggerValidateSchemaSemanticFormData</tspan>

<tspan x="10" y="1578">- rename function validateBySwaggerParameters -&gt; swaggerValidateDataParameters</tspan>

<tspan x="10" y="1594">- rename function validateBySwaggerSchema -&gt; swaggerValidateDataSchema</tspan>

<tspan x="10" y="1610">- rename function swaggerValidateJson -&gt; swaggerValidate</tspan>

<tspan x="10" y="1626">- add assets assets.swagger-ui.logo.medium.png, assets.swagger-ui.logo.small.png</tspan>

<tspan x="10" y="1642">- update function apiUpdate to auto-create property x-swgg-tagNameList</tspan>

<tspan x="10" y="1658">- hide info-template during initial render</tspan>

<tspan x="10" y="1674">- fix css button margins</tspan>

<tspan x="10" y="1690"></tspan>

<tspan x="10" y="1706">2018-03-27 00:13:48 +0900</tspan>

<tspan x="10" y="1722">[npm publish] - npm publish v2018.3.25</tspan>

<tspan x="10" y="1738">- fix transparency bug in firefox for textarea</tspan>

<tspan x="10" y="1754">- revamp css</tspan>

<tspan x="10" y="1770"></tspan>

<tspan x="10" y="1786">2018-02-25 18:35:39 +0700</tspan>

<tspan x="10" y="1802">[npm publish] - npm publish v2018.2.24</tspan>

<tspan x="10" y="1818">- assets.utility2.rollup.js - add function shlintUtility2 and macro # jslint-utility2</tspan>

<tspan x="10" y="1834">- merge function uiRenderAll into onEventUiReload</tspan>

<tspan x="10" y="1850">- add ui-element swggAjaxErrorPre1, and uppdate function uiNotify to post errors there</tspan>

<tspan x="10" y="1866">- fix bug in function normalizeSwaggerJson where options.objectSetDescription is not applied to \</tspan>
<tspan x="10" y="1882">operation.parameters or operation.responses</tspan>

<tspan x="10" y="1898">- update function normalizeSwaggerJson with option x-swgg-fixErrorSemanticUniquePath</tspan>

<tspan x="10" y="1914">- add function operationIdFromAjax</tspan>

<tspan x="10" y="1930">- add function swaggerJsonFromAjax, swaggerJsonFromCurl, swaggerJsonFromPostBody</tspan>

<tspan x="10" y="1946">- add function urlParseWithBraket</tspan>

<tspan x="10" y="1962"></tspan>

<tspan x="10" y="1978">2018-02-02 12:06:01 +0700</tspan>

<tspan x="10" y="1994">[npm publish] - npm publish 2018.2.1</tspan>

<tspan x="10" y="2010">- add validation semanticUniquePath in function swaggerValidateJson</tspan>

<tspan x="10" y="2026">- merge js-env for tests</tspan>

<tspan x="10" y="2042">- add swaggerJson property x-swgg-descriptionLineList</tspan>

<tspan x="10" y="2058">- add file assets.swgg.swagger.petstore.json</tspan>

<tspan x="10" y="2074">- add function swaggerValidateFile</tspan>

<tspan x="10" y="2090">- ignore env var $npm_package_swggAll and $npm_package_swggTags0 if package-name has -all suffix</tspan>

<tspan x="10" y="2106">- dereference body-sub-schema.$ref in ui-documentation</tspan>

<tspan x="10" y="2122">- fix failed semanticRequired validation-error in ui</tspan>

<tspan x="10" y="2138">- update function dbFieldRandomCreate to use schemaP.default if available, in modeNotRandom</tspan>

<tspan x="10" y="2154">- update function normalizeSwaggerJson to override tag.description with x-swgg-tags0-override</tspan>

<tspan x="10" y="2170"></tspan>

<tspan x="10" y="2186">2018-01-13 19:12:58 +0700</tspan>

<tspan x="10" y="2202">[npm publish] - npm publish 2018.1.12</tspan>

<tspan x="10" y="2218">- do not auto-fill input if default value is null</tspan>

<tspan x="10" y="2234">- remove unused datatable link</tspan>

<tspan x="10" y="2250"></tspan>

<tspan x="10" y="2266">2017-11-21 12:42:25 +0800</tspan>

<tspan x="10" y="2282">[npm publish] - npm publish 2017.11.20</tspan>

<tspan x="10" y="2298">- add param operation['x-swgg-consumes0'], operation['x-swgg-notRequired'], and operation['x-swg\</tspan>
<tspan x="10" y="2314">g-required']</tspan>

<tspan x="10" y="2330">- add operation['x-swgg-consumes0'] = 'application/xml' support for wechat-pay</tspan>

<tspan x="10" y="2346">- allow function dbRowListRandomCreate to recurse objects and stop with modeSubdoc flag</tspan>

<tspan x="10" y="2362">- disable submit-button on input-validation-error</tspan>

<tspan x="10" y="2378">- fix in.body parameter not showing validation-error-message</tspan>

<tspan x="10" y="2394">- update ui to show required attribute only in 'name and desscription' section</tspan>

<tspan x="10" y="2410">- use textarea for string (json)</tspan>

<tspan x="10" y="2426"></tspan>

<tspan x="10" y="2442">2017-11-16 21:17:57 +0800</tspan>

<tspan x="10" y="2458">[npm publish] - npm publish 2017.11.15</tspan>

<tspan x="10" y="2474">- add env tags filter $npm_package_swggTags0</tspan>

<tspan x="10" y="2490">- add function assertSwaggerValidate</tspan>

<tspan x="10" y="2506">- allow function dbRowListRandomCreate to recurse objects and stop with modeSubdoc flag</tspan>

<tspan x="10" y="2522">- function templateRender - default to htmlSafe and override with flag notHtmlSafe</tspan>

<tspan x="10" y="2538">- ui - add cross-browser multiline placeholder support for textarea</tspan>

<tspan x="10" y="2554">- ui - add dynamic input validation</tspan>

<tspan x="10" y="2570">- ui - include resource description from header in operationList</tspan>

<tspan x="10" y="2586">- ui - merge template templateUiResponseAjax into templateUiOperation</tspan>

<tspan x="10" y="2602">- ui - select pre-text when clicked</tspan>

<tspan x="10" y="2618">- ui - truncate resource long-descriptions</tspan>

<tspan x="10" y="2634">- ui - remove eventListeners in operation-div (and rely on resource-ui eventListeners)</tspan>

<tspan x="10" y="2650">- rename function uiRender -&gt; uiRenderAll</tspan>

<tspan x="10" y="2666">- rename property x-swgg-urlApp -&gt; x-swgg-downloadStandaloneApp</tspan>

<tspan x="10" y="2682">- update function normalizeSwaggerJson to override swaggerJson with x-swgg-tags0-override</tspan>

<tspan x="10" y="2698"></tspan>

<tspan x="10" y="2714">2017-11-08 02:30:09 +0800</tspan>

<tspan x="10" y="2730">[npm publish] - npm publish 2017.11.7</tspan>

<tspan x="10" y="2746">- add responsive css to header</tspan>

<tspan x="10" y="2762">- merge properties paramDef.x-swgg-example and paramDef.default -&gt; paramDef.default</tspan>

<tspan x="10" y="2778">- modify function normalizeSwaggerParamDict to only set default-value if required (or modeDefaul\</tspan>
<tspan x="10" y="2794">t flag is enabled)</tspan>

<tspan x="10" y="2810">- rename x-swgg-definitionsParameter -&gt; #/parameters</tspan>

<tspan x="10" y="2826">- remove unused apiAjax defer-routine</tspan>

<tspan x="10" y="2842">- revamp normalizers normalizeSwaggerJson, normalizeSwaggerParamDict</tspan>

<tspan x="10" y="2858">- revamp validators validateBySwaggerJson, validateBySwaggerParameters, validateBySwaggerSchema</tspan>

<tspan x="10" y="2874">- validate schema.default</tspan>

<tspan x="10" y="2890"></tspan>

<tspan x="10" y="2906">2017-10-29 03:37:37 +0800</tspan>

<tspan x="10" y="2922">[npm publish] - npm publish 2017.10.28</tspan>

<tspan x="10" y="2938">- add jsonp ability to function swgg.apiUpdate</tspan>

<tspan x="10" y="2954">- add property swaggerJson['x-swgg-operationIdFromPath']</tspan>

<tspan x="10" y="2970">- add property swaggerJson.info['x-swgg-urlApp'] and 'download standalone app' link</tspan>

<tspan x="10" y="2986">- allow deferring of function apiAjax to wait for remote swaggerJson</tspan>

<tspan x="10" y="3002">- document apiDict.ajax methods</tspan>

<tspan x="10" y="3018">- rename pathObject._idAlias -&gt; pathObject._idBackend</tspan>

<tspan x="10" y="3034">- rename pathObject._idField -&gt; pathObject._idName</tspan>

<tspan x="10" y="3050">- rename pathObject._keyCrud -&gt; pathObject._crudType</tspan>

<tspan x="10" y="3066">- rename pathObject._keyPath -&gt; pathObject._methodPath</tspan>

<tspan x="10" y="3082">- rename request.swgg.crud.operationId -&gt; request.swgg.crud.crudType</tspan>

<tspan x="10" y="3098">- split pathObject.operationId into pathObject.crudType from pathObject.operationId</tspan>

<tspan x="10" y="3114"></tspan>

<tspan x="10" y="3130">2017-10-25 00:25:48 +0800</tspan>

<tspan x="10" y="3146">[npm publish] - npm publish 2017.10.24</tspan>

<tspan x="10" y="3162">- remove datatable for future revamp</tspan>

<tspan x="10" y="3178">- add feature $SWGG_TAGS0_FILTER to filter x-swgg-tags0</tspan>

<tspan x="10" y="3194">- add feature x-swgg-operationIdFromPath to auto-create operationId from path</tspan>

<tspan x="10" y="3210">- fix property items.enum not rendering multi-select input bug</tspan>

<tspan x="10" y="3226">- fix missing resource.id bug</tspan>

<tspan x="10" y="3242">- rename function normalizeParamDictSwagger -&gt; swaggerParamDictNormalize</tspan>

<tspan x="10" y="3258">- rename property pathObject._operationId -&gt; pathObject._keyCrud</tspan>

<tspan x="10" y="3274">- rename property swgg.pathname -&gt; swgg.keyPath</tspan>

<tspan x="10" y="3290">- remove operationId display from ui</tspan>

<tspan x="10" y="3306"></tspan>

<tspan x="10" y="3322">2017-10-19 01:09:50 +0800</tspan>

<tspan x="10" y="3338">[npm publish] - npm publish 2017.10.17</tspan>

<tspan x="10" y="3354">- auto-scroll to first operation if hashbang fails</tspan>

<tspan x="10" y="3370">- fix client-api initialization in browser</tspan>

<tspan x="10" y="3386">- fix bug where missing required-param in ui does not give error</tspan>

<tspan x="10" y="3402"></tspan>

<tspan x="10" y="3418">2017-10-13 02:44:27 +0800</tspan>

<tspan x="10" y="3434">[npm publish] - npm publish 2017.10.11</tspan>

<tspan x="10" y="3450">- add swgg credit to bottom on assets.swgg.html</tspan>

<tspan x="10" y="3466">- add top-level swagger-json property x-definitionsParameters</tspan>

<tspan x="10" y="3482">- add param-property x-host</tspan>

<tspan x="10" y="3498">- document library-call equivalent to curl-request</tspan>

<tspan x="10" y="3514">- rename function swgg.apiDictUpdate -&gt; swgg.apiUpdate</tspan>

<tspan x="10" y="3530"></tspan>

<tspan x="10" y="3546">2017-10-06 19:59:42 +0800</tspan>

<tspan x="10" y="3562">[npm publish] - npm publish 2017.10.5</tspan>

<tspan x="10" y="3578">- add api-key form-input, and persist in localStorage</tspan>

<tspan x="10" y="3594">- add param-property 'x-apiKey'</tspan>

<tspan x="10" y="3610">- add param-property 'x-example' (similar to 'default' param-property, except used in input-plac\</tspan>
<tspan x="10" y="3626">eholder)</tspan>

<tspan x="10" y="3642">- allow degenerate method-path's by appending # comment</tspan>

<tspan x="10" y="3658">- fix double '//' bug when basePath is '/'</tspan>

<tspan x="10" y="3674">- rename ajaxForwardProxyUrlTest to githubForwardProxyUrlTest</tspan>

<tspan x="10" y="3690"></tspan>

<tspan x="10" y="3706">2017-07-26 07:28:11 +0800</tspan>

<tspan x="10" y="3722">[npm publish] - npm publish 2017.7.24</tspan>

<tspan x="10" y="3738">- add url property x-homepage in swagger.json to url-link info.title</tspan>

<tspan x="10" y="3754">- auto-scroll to hashtag of expanded element</tspan>

<tspan x="10" y="3770">- chrome bug-workaround and w3 validation - replace &lt;form2&gt; tag with &lt;div class=form&gt;</tspan>

<tspan x="10" y="3786">- streamline server logs</tspan>

<tspan x="10" y="3802"></tspan>

<tspan x="10" y="3818">2017-07-16 03:25:36 +0800</tspan>

<tspan x="10" y="3834">[npm publish] - npm publish 2017.7.1</tspan>

<tspan x="10" y="3850">- auto-build README section 'table of contents'</tspan>

<tspan x="10" y="3866">- enhance github-cors with function githubCorsUrlOverride</tspan>

<tspan x="10" y="3882">- move functions uiAnimateSlideXxx from file lib.swgg.js to file assets.utility2.rollup.js</tspan>

<tspan x="10" y="3898"></tspan>

<tspan x="10" y="3914">2017-05-22 16:55:49 +0800</tspan>

<tspan x="10" y="3930">[npm publish] - npm publish 2017.5.20</tspan>

<tspan x="10" y="3946">- add url-search param modeSwaggerJsonUrl to override assets.swgg.swagger.json</tspan>

<tspan x="10" y="3962">- deduplicate files assets.swgg.html and assets.swgg.rollup.js</tspan>

<tspan x="10" y="3978">- hardcode server-based swagger.json as assets.swgg.swagger.server.json</tspan>

<tspan x="10" y="3994">- merge assets.swgg.rollup.js into assets.utility2.rollup.js</tspan>

<tspan x="10" y="4010">- rename api/v0/swagger.json -&gt; assets.swgg.swagger.server.json</tspan>

<tspan x="10" y="4026">- rename assets.swgg.petstore.json -&gt; assets.swgg.swagger.petstore.json</tspan>

<tspan x="10" y="4042">- add README section 'internal screen-capture'</tspan>

<tspan x="10" y="4058">- add README section 'quickstart standalone app'</tspan>

<tspan x="10" y="4074">- rename README section 'quickstart web example' -&gt; 'quickstart example.js'</tspan>

<tspan x="10" y="4090"></tspan>

<tspan x="10" y="4106">2017-05-02 12:58:31 +0800</tspan>

<tspan x="10" y="4122">[npm publish] - npm publish 2017.5.1</tspan>

<tspan x="10" y="4138">- update utility2 static-dependency in assets.swgg.rollup.js</tspan>

<tspan x="10" y="4154"></tspan>

<tspan x="10" y="4170">2017-03-30 19:19:56 +0800</tspan>

<tspan x="10" y="4186">[npm publish] - update utility2 static-dependency in assets.swgg.rollup.js</tspan>

<tspan x="10" y="4202">- add loading-text when resource is loading</tspan>

<tspan x="10" y="4218">- add validation for phone format-string</tspan>

<tspan x="10" y="4234"></tspan>

<tspan x="10" y="4250">2017-02-21 02:47:57 +0800</tspan>

<tspan x="10" y="4266">- npm publish 2017.2.20</tspan>

<tspan x="10" y="4282">- create published-alias oai-client oai-server swagger-client-lite swagger-lite swagger-server-l\</tspan>
<tspan x="10" y="4298">ite</tspan>

<tspan x="10" y="4314">- rename dom-element #outputTextareaStdout -&gt; #outputTextareaStdout1</tspan>

<tspan x="10" y="4330">- replace env var npm_package_name with npm_package_nameAlias in istanbul code-coverage</tspan>

<tspan x="10" y="4346"></tspan>

<tspan x="10" y="4362">2017-02-19 00:15:20 +0800</tspan>

<tspan x="10" y="4378">- npm publish 2017.2.17</tspan>

<tspan x="10" y="4394">- do not auto-uglify js-assets</tspan>

<tspan x="10" y="4410">- revamp README.md</tspan>

<tspan x="10" y="4426">- update lib.utility2</tspan>

<tspan x="10" y="4442"></tspan>

<tspan x="10" y="4458">2017-02-06 21:12:28 +0800</tspan>

<tspan x="10" y="4474">- npm publish 2017.2.6</tspan>

<tspan x="10" y="4490">- allow swagger-json url to be changed</tspan>

<tspan x="10" y="4506">- allow swagger-ui operation to appear in multiple tags</tspan>

<tspan x="10" y="4522">- rename assets.lib.swgg.* to assets.swgg.*</tspan>

<tspan x="10" y="4538">- merge files lib.* into standaalone file assets.swgg.rollup.js</tspan>

<tspan x="10" y="4554">- merge files lib.swgg.* into lib.swgg.js</tspan>

<tspan x="10" y="4570"></tspan>

<tspan x="10" y="4586">2017-01-12 12:41:11 +0800</tspan>

<tspan x="10" y="4602">- npm publish 2017.1.12</tspan>

<tspan x="10" y="4618">- update files lib.utility2.*</tspan>

<tspan x="10" y="4634">- update documentation</tspan>

<tspan x="10" y="4650"></tspan>

<tspan x="10" y="4666">2016-12-31 19:25:20 +0800</tspan>

<tspan x="10" y="4682">- npm publish 2016.12.30</tspan>

<tspan x="10" y="4698">- revamp swgg.ui.js</tspan>

<tspan x="10" y="4714"></tspan>

<tspan x="10" y="4730">2016-12-26 15:05:22 +0800</tspan>

<tspan x="10" y="4746">- rename file lib.swgg.json-schema.json</tspan>

<tspan x="10" y="4762">- rename file lib.swgg.petstore.json</tspan>

<tspan x="10" y="4778">- rename file lib.swgg.schema.json</tspan>

<tspan x="10" y="4794">- rename file lib.swgg.ui.js</tspan>

<tspan x="10" y="4810"></tspan>

<tspan x="10" y="4826">2016-12-26 12:13:11 +0800</tspan>

<tspan x="10" y="4842">- npm publish 2016.12.25</tspan>

<tspan x="10" y="4858">- add spec-compliant collectionFormat parameter for arrays</tspan>

<tspan x="10" y="4874">- merge github-crud into this package</tspan>

<tspan x="10" y="4890">- add heroku-postbuild npm-script</tspan>

<tspan x="10" y="4906"></tspan>

<tspan x="10" y="4922">2016-12-11 12:22:05 +0800</tspan>

<tspan x="10" y="4938">- fix shBuildDoc accidentally adding coverage to doc</tspan>

<tspan x="10" y="4954"></tspan>

<tspan x="10" y="4970">2016-12-11 12:05:29 +0800</tspan>

<tspan x="10" y="4986">- npm publish 2016.12.1</tspan>

<tspan x="10" y="5002">- merge utility2 and swgg namespace into local namespace</tspan>

<tspan x="10" y="5018">- revamp user-login / user-logout to use standard json-web-encryption token</tspan>

<tspan x="10" y="5034"></tspan>

<tspan x="10" y="5050">2016-11-30 17:45:55 +0800</tspan>

<tspan x="10" y="5066">- rename package from swagger-lite -&gt; swgg</tspan>

<tspan x="10" y="5082"></tspan>

<tspan x="10" y="5098">2016-11-30 02:48:10 +0800</tspan>

<tspan x="10" y="5114">- npm publish 2016.11.2</tspan>

<tspan x="10" y="5130">- merge swgg.middlewareJsonpStateInit into utility2._middlewareJsonpStateInit</tspan>

<tspan x="10" y="5146">- db - fix persistence-cancel handling-behavior</tspan>

<tspan x="10" y="5162">- utility2 - add env npm_package_nameAlias</tspan>

<tspan x="10" y="5178"></tspan>

<tspan x="10" y="5194">2016-11-23 11:55:35 +0800</tspan>

<tspan x="10" y="5210">- npm publish 2016.11.1</tspan>

<tspan x="10" y="5226">- make this package dependency-less</tspan>

<tspan x="10" y="5242">- rename files index.* -&gt; lib.swgg.*</tspan>

<tspan x="10" y="5258">- rename field _timeModified -&gt; _timeUpdated</tspan>

<tspan x="10" y="5274">- fix cdn-links</tspan>

<tspan x="10" y="5290"></tspan>

<tspan x="10" y="5306">2016-11-21 10:22:45 +0800</tspan>

<tspan x="10" y="5322">- npm publish 2016.10.2</tspan>

<tspan x="10" y="5338">- temporary fix for chrome render bug - https://bugs.chromium.org/p/chromium/issues/detail?id=66\</tspan>
<tspan x="10" y="5354">0671</tspan>

<tspan x="10" y="5370">- rename api-suffix *KeyUnique -&gt; *Id</tspan>

<tspan x="10" y="5386">- rename field createdAt -&gt; _timeCreated</tspan>

<tspan x="10" y="5402">- rename field updatedAt -&gt; _timeModified</tspan>

<tspan x="10" y="5418"></tspan>

<tspan x="10" y="5434">2016-10-17 21:10:49 +0800</tspan>

<tspan x="10" y="5450">- npm publish 2016.10.1</tspan>

<tspan x="10" y="5466">- migrate db from nedb-lite to db-lite</tspan>

<tspan x="10" y="5482">- streamline tests</tspan>

<tspan x="10" y="5498"></tspan>

<tspan x="10" y="5514">2016-10-02 12:04:31 +0800</tspan>

<tspan x="10" y="5530">- npm publish 2016.9.1</tspan>

<tspan x="10" y="5546">- update utility2 dependency</tspan>

<tspan x="10" y="5562"></tspan>

<tspan x="10" y="5578">2016-08-27 11:05:16 +0800</tspan>

<tspan x="10" y="5594">- npm publish 2016.8.1</tspan>

<tspan x="10" y="5610">- allow file export / import of nedb-database</tspan>

<tspan x="10" y="5626">- migrate nedb-api from swagger-lite to utility2</tspan>

<tspan x="10" y="5642">- rename collectDoc to dbRow and collection to dbTable</tspan>

<tspan x="10" y="5658"></tspan>

<tspan x="10" y="5674">2016-08-07 22:39:06 +0200</tspan>

<tspan x="10" y="5690">- npm publish 2016.7.2</tspan>

<tspan x="10" y="5706">- deploy standalone-app to heroku</tspan>

<tspan x="10" y="5722">- rename local.utility2.middlewareJsonpStateGet to local.utility2.middlewareJsonpStateInit</tspan>

<tspan x="10" y="5738"></tspan>

<tspan x="10" y="5754">2016-07-31 15:02:39 +0200</tspan>

<tspan x="10" y="5770">- npm publish 2016.7.1</tspan>

<tspan x="10" y="5786">- replace lib bcrypt and lib cryptojs with lib sjcl</tspan>

<tspan x="10" y="5802"></tspan>

<tspan x="10" y="5818">2016-07-01 03:17:59 +0200</tspan>

<tspan x="10" y="5834">- npm publish 2016.5.4</tspan>

<tspan x="10" y="5850">- fix internal tests for heroku backend</tspan>

<tspan x="10" y="5866"></tspan>

<tspan x="10" y="5882">2016-06-15 17:19:02 +0300</tspan>

<tspan x="10" y="5898">- npm publish 2016.5.2</tspan>

<tspan x="10" y="5914">- deploy standalone app to heroku test-server</tspan>

<tspan x="10" y="5930">- remove nedb-lite dependency</tspan>

<tspan x="10" y="5946">- add minified asset assets.app.min.js</tspan>

<tspan x="10" y="5962">- add 'run internal test' button in webpage</tspan>

<tspan x="10" y="5978">- add env var npm_config_mode_backend to disable utility2.serverLocalUrlTest</tspan>

<tspan x="10" y="5994"></tspan>

<tspan x="10" y="6010">2016-06-12 03:58:24 +0300</tspan>

<tspan x="10" y="6026">- npm publish 2016.5.2</tspan>

<tspan x="10" y="6042">- add standalone-app download-link in test-page</tspan>

<tspan x="10" y="6058">- ui - add button to reset nedb database</tspan>

</text>
</svg>
