<svg height="1182" width="720" xmlns="http://www.w3.org/2000/svg">
<rect height="1182" fill="#555" width="720"></rect>
<text fill="#7f7" font-family="Courier New" font-size="12" xml:space="preserve">
<tspan x="10" y="26"></tspan>

<tspan x="10" y="42">[MODE_BUILD=buildApp] - 2018-09-10T13:24:32.598Z - npm-testing /home/travis/build/kaizhu256/node\</tspan>
<tspan x="10" y="58">-swgg</tspan>

<tspan x="10" y="74"></tspan>

<tspan x="10" y="90"></tspan>

<tspan x="10" y="106">buildApp - merged test-report from file /home/travis/build/kaizhu256/node-swgg/tmp/build/test-re\</tspan>
<tspan x="10" y="122">port.json</tspan>

<tspan x="10" y="138">&gt; server listening on http-port 39502</tspan>

<tspan x="10" y="154">db - dropping database ...</tspan>

<tspan x="10" y="170">db - seeding dbTable File ...</tspan>

<tspan x="10" y="186">db - seeding dbTable Pet ...</tspan>

<tspan x="10" y="202">db - seeding dbTable Order ...</tspan>

<tspan x="10" y="218">db - seeding dbTable User ...</tspan>

<tspan x="10" y="234">db - seeding dbTable File ...</tspan>

<tspan x="10" y="250">db - seeding dbTable Pet ...</tspan>

<tspan x="10" y="266">db - seeding dbTable Order ...</tspan>

<tspan x="10" y="282">db - seeding dbTable User ...</tspan>

<tspan x="10" y="298">db - seeding dbTable TestCrud ...</tspan>

<tspan x="10" y="314">db loaded from tmp/storage.test</tspan>

<tspan x="10" y="330">server listening on http-port 33750</tspan>

<tspan x="10" y="346">db - seeding dbTable File ...</tspan>

<tspan x="10" y="362">db - seeding dbTable Pet ...</tspan>

<tspan x="10" y="378">db - seeding dbTable Order ...</tspan>

<tspan x="10" y="394">db - seeding dbTable User ...</tspan>

<tspan x="10" y="410">&gt; db - seeding dbTable File ...</tspan>

<tspan x="10" y="426">db - seeding dbTable Pet ...</tspan>

<tspan x="10" y="442">db - seeding dbTable Order ...</tspan>

<tspan x="10" y="458">db - seeding dbTable User ...</tspan>

<tspan x="10" y="474">db - seeding dbTable TestCrud ...</tspan>

<tspan x="10" y="490">db - importing dbTable TestCrud ...</tspan>

<tspan x="10" y="506">db - importing dbTable TestCrud ...</tspan>

<tspan x="10" y="522">db - importing dbTable Order ...</tspan>

<tspan x="10" y="538">db - importing dbTable User ...</tspan>

<tspan x="10" y="554">db - importing dbTable Order ...</tspan>

<tspan x="10" y="570">db - importing dbTable User ...</tspan>

<tspan x="10" y="586">db - importing dbTable Pet ...</tspan>

<tspan x="10" y="602">db - importing dbTable Pet ...</tspan>

<tspan x="10" y="618">db - importing dbTable File ...</tspan>

<tspan x="10" y="634">db - importing dbTable File ...</tspan>

<tspan x="10" y="650">db loaded from tmp/storage.undefined</tspan>

<tspan x="10" y="666">[node test-case 1 of 1 passed] - testCase_buildApp_default</tspan>

<tspan x="10" y="682"></tspan>

<tspan x="10" y="698">buildApp - merged test-report from file /home/travis/build/kaizhu256/node-swgg/tmp/build/test-re\</tspan>
<tspan x="10" y="714">port.json</tspan>

<tspan x="10" y="730"></tspan>

<tspan x="10" y="746">-------------------------------------------------------</tspan>

<tspan x="10" y="762">| test-report - buildApidoc - node - linux v10.10.0 - 2018-09-10T13:24:15.169Z</tspan>

<tspan x="10" y="778">|   23867 ms            0 failed        1 passed      |</tspan>

<tspan x="10" y="794">-------------------------------------------------------</tspan>

<tspan x="10" y="810">| test-report - npmTest - browser - / - Mozilla/5.0 (X11; Linux x86_64) AppleWebKit/537.36 (KHTM\</tspan>
<tspan x="10" y="826">L, like Gecko) Chrome/61.0.3163.100 Electron/2.0.8 Safari/537.36 - 2018-09-10T13:23:58.652Z</tspan>

<tspan x="10" y="842">|    5851 ms            0 failed       34 passed      |</tspan>

<tspan x="10" y="858">-------------------------------------------------------</tspan>

<tspan x="10" y="874">| test-report - npmTest - node - linux v10.10.0 - 2018-09-10T13:23:52.468Z</tspan>

<tspan x="10" y="890">|   17240 ms            0 failed       40 passed      |</tspan>

<tspan x="10" y="906">-------------------------------------------------------</tspan>

<tspan x="10" y="922">| test-report - npmTestPublished - browser - / - Mozilla/5.0 (X11; Linux x86_64) AppleWebKit/537\</tspan>
<tspan x="10" y="938">.36 (KHTML, like Gecko) Chrome/61.0.3163.100 Electron/2.0.8 Safari/537.36 - 2018-09-10T13:22:47.\</tspan>
<tspan x="10" y="954">312Z</tspan>

<tspan x="10" y="970">|    6246 ms            0 failed       34 passed      |</tspan>

<tspan x="10" y="986">-------------------------------------------------------</tspan>

<tspan x="10" y="1002">| test-report - npmTestPublished - node - linux v10.10.0 - 2018-09-10T13:22:40.493Z</tspan>

<tspan x="10" y="1018">|   18895 ms            0 failed       40 passed      |</tspan>

<tspan x="10" y="1034">-------------------------------------------------------</tspan>

<tspan x="10" y="1050"></tspan>

<tspan x="10" y="1066">created test-report file /home/travis/build/kaizhu256/node-swgg/tmp/build/test-report.html</tspan>

<tspan x="10" y="1082"></tspan>

<tspan x="10" y="1098"></tspan>

<tspan x="10" y="1114">buildApp - 0 failed tests</tspan>

<tspan x="10" y="1130"></tspan>

<tspan x="10" y="1146"></tspan>

<tspan x="10" y="1162">[MODE_BUILD=buildApp] - 2018-09-10T13:24:41.319Z - EXIT_CODE - 0</tspan>

</text>
</svg>
