<svg height="6430" width="720" xmlns="http://www.w3.org/2000/svg">
<rect height="6430" fill="#555" width="720"></rect>
<text fill="#7f7" font-family="Courier New" font-size="12" xml:space="preserve">
<tspan x="10" y="26">2019-02-20 02:03:20 -0600</tspan>

<tspan x="10" y="42">[npm publish] - npm publish 2019.2.20</tspan>

<tspan x="10" y="58">- split function domOnEventDelegate into domOnEventDelegate, domOnEventResetOutput</tspan>

<tspan x="10" y="74">- add input-type=number</tspan>

<tspan x="10" y="90">- revamp ui event-handling with window.domOnEventDelegateDict</tspan>

<tspan x="10" y="106">- split function jslintAndPrint -&gt; jslintAndPrint, jslintAutofix, jslintUtility2</tspan>

<tspan x="10" y="122">- add function local.objectAssignDefault</tspan>

<tspan x="10" y="138">- upgrade to jslint commit-de413767154641f490d6e96185e525255cca5f7e (v2018.11.14)</tspan>

<tspan x="10" y="154"></tspan>

<tspan x="10" y="170">2018-11-15 00:49:55 +0800</tspan>

<tspan x="10" y="186">[npm publish] - npm publish 2018.11.14</tspan>

<tspan x="10" y="202">- refactor files with new jslint (v2018.10.26)</tspan>

<tspan x="10" y="218">- jslint - replace ",$s/^ *".*"\n *+ ".*"\(\n *+ ".*"\)*/(&amp;)/gc"</tspan>

<tspan x="10" y="234">- jslint - unexpected_a \(</tspan>

<tspan x="10" y="250">- jslint - replace instanceof -&gt; Object.prototype.toString.call</tspan>

<tspan x="10" y="266">- jslint - replace var self -&gt; that</tspan>

<tspan x="10" y="282">- jslint - unconst and unlet</tspan>

<tspan x="10" y="298">- jslint - prioritize fatal jslint-errors</tspan>

<tspan x="10" y="314">- jslint - merge function jslintAndPrintConditional -&gt; jslintAndPrint</tspan>

<tspan x="10" y="330">- jslint-autofix - braket</tspan>

<tspan x="10" y="346">- jslint-autofix - parenthesize open-statements</tspan>

<tspan x="10" y="362">- jslint-autofix - prefix-operator</tspan>

<tspan x="10" y="378">- jslint-autofix - parenthesize rgx</tspan>

<tspan x="10" y="394">- jslint-autofix - local-function</tspan>

<tspan x="10" y="410">- jslint-autofix - add autofix button to live web-demo</tspan>

<tspan x="10" y="426">- jslint-autofix - embedded ```javascript```, &lt;\script\&gt;, &lt;\style\&gt;</tspan>

<tspan x="10" y="442">- jslint-autofix - tweak to run before JSLint in function jslintAndPrint</tspan>

<tspan x="10" y="458">- update function uiEventDelegate to use dom-property data-event</tspan>

<tspan x="10" y="474"></tspan>

<tspan x="10" y="490">2018-09-08 21:13:22 +0700</tspan>

<tspan x="10" y="506">[npm publish] - npm publish 2018.9.8</tspan>

<tspan x="10" y="522">- prepare for jslint v2018.05.14</tspan>

<tspan x="10" y="538">- update function buildLib to add section 'local functions - builtin' and remove duplicate local\</tspan>
<tspan x="10" y="554"> functions</tspan>

<tspan x="10" y="570">- merge env var modeTest and utility2_modeTestRun -&gt; local.global.utility2_modeTest</tspan>

<tspan x="10" y="586">- merge function onResetXxx -&gt; utility2_onReadyXxx</tspan>

<tspan x="10" y="602">- revamp bootstrap-mechanism before running tests</tspan>

<tspan x="10" y="618">- revamp event-handling function uiEventDelegate</tspan>

<tspan x="10" y="634">- integrate function db.onEventDomDb with utility2_onReadyBefore</tspan>

<tspan x="10" y="650">- cleanup base64 &lt;-&gt; buffer helpers</tspan>

<tspan x="10" y="666"></tspan>

<tspan x="10" y="682">2018-08-17 14:00:18 +0700</tspan>

<tspan x="10" y="698">[npm publish] - npm publish 2018.8.17</tspan>

<tspan x="10" y="714">- add swaggerJson param x-swgg-buttonDatabase</tspan>

<tspan x="10" y="730">- do not require following nodejs builtins by default: console, constants, module, process, puny\</tspan>
<tspan x="10" y="746">code</tspan>

<tspan x="10" y="762">- add benchmark analytics domOnEventWindowOnloadTimeElapsed</tspan>

<tspan x="10" y="778">- add BigInt-support for jslint and istanbul</tspan>

<tspan x="10" y="794">- migrate from modeJs -&gt; isBrowser</tspan>

<tspan x="10" y="810">- add validator semanticPaths3</tspan>

<tspan x="10" y="826"></tspan>

<tspan x="10" y="842">2018-06-19 11:58:56 -0500</tspan>

<tspan x="10" y="858">[npm publish] - npm publish 2018.6.16</tspan>

<tspan x="10" y="874">- add sample testAudio1, testImage1, testVideo1 for file-upload api</tspan>

<tspan x="10" y="890">- fix default description for tags</tspan>

<tspan x="10" y="906">- add better test audio/image for file-upload api</tspan>

<tspan x="10" y="922">- allow submit-override in ui, in spite of validation-errors</tspan>

<tspan x="10" y="938">- revamp function buildLib</tspan>

<tspan x="10" y="954"></tspan>

<tspan x="10" y="970">2018-04-22 03:26:21 +0800</tspan>

<tspan x="10" y="986">[npm publish] - npm publish v2018.4.21</tspan>

<tspan x="10" y="1002">- add semantic validators from https://github.com/swagger-api/swagger-editor/tree/v3.1.20/src/pl\</tspan>
<tspan x="10" y="1018">ugins/validation/semantic-validators/validators</tspan>

<tspan x="10" y="1034">- add function swaggerValidateSchemaSemanticFormData</tspan>

<tspan x="10" y="1050">- rename function validateBySwaggerParameters -&gt; swaggerValidateDataParameters</tspan>

<tspan x="10" y="1066">- rename function validateBySwaggerSchema -&gt; swaggerValidateDataSchema</tspan>

<tspan x="10" y="1082">- rename function swaggerValidateJson -&gt; swaggerValidate</tspan>

<tspan x="10" y="1098">- add assets assets.swagger-ui.logo.medium.png, assets.swagger-ui.logo.small.png</tspan>

<tspan x="10" y="1114">- update function apiUpdate to auto-create property x-swgg-tagNameList</tspan>

<tspan x="10" y="1130">- hide info-template during initial render</tspan>

<tspan x="10" y="1146">- fix css button margins</tspan>

<tspan x="10" y="1162"></tspan>

<tspan x="10" y="1178">2018-03-27 00:13:48 +0900</tspan>

<tspan x="10" y="1194">[npm publish] - npm publish v2018.3.25</tspan>

<tspan x="10" y="1210">- fix transparency bug in firefox for textarea</tspan>

<tspan x="10" y="1226">- revamp css</tspan>

<tspan x="10" y="1242"></tspan>

<tspan x="10" y="1258">2018-02-25 18:35:39 +0700</tspan>

<tspan x="10" y="1274">[npm publish] - npm publish v2018.2.24</tspan>

<tspan x="10" y="1290">- assets.utility2.rollup.js - add function shlintUtility2 and macro # jslint-utility2</tspan>

<tspan x="10" y="1306">- merge function uiRenderAll into onEventUiReload</tspan>

<tspan x="10" y="1322">- add ui-element swggAjaxErrorPre1, and uppdate function uiNotify to post errors there</tspan>

<tspan x="10" y="1338">- fix bug in function normalizeSwaggerJson where options.objectSetDescription is not applied to \</tspan>
<tspan x="10" y="1354">operation.parameters or operation.responses</tspan>

<tspan x="10" y="1370">- update function normalizeSwaggerJson with option x-swgg-fixErrorSemanticUniquePath</tspan>

<tspan x="10" y="1386">- add function operationIdFromAjax</tspan>

<tspan x="10" y="1402">- add function swaggerJsonFromAjax, swaggerJsonFromCurl, swaggerJsonFromPostBody</tspan>

<tspan x="10" y="1418">- add function urlParseWithBraket</tspan>

<tspan x="10" y="1434"></tspan>

<tspan x="10" y="1450">2018-02-02 12:06:01 +0700</tspan>

<tspan x="10" y="1466">[npm publish] - npm publish 2018.2.1</tspan>

<tspan x="10" y="1482">- add validation semanticUniquePath in function swaggerValidateJson</tspan>

<tspan x="10" y="1498">- merge js-env for tests</tspan>

<tspan x="10" y="1514">- add swaggerJson property x-swgg-descriptionLineList</tspan>

<tspan x="10" y="1530">- add file assets.swgg.swagger.petstore.json</tspan>

<tspan x="10" y="1546">- add function swaggerValidateFile</tspan>

<tspan x="10" y="1562">- ignore env var $npm_package_swggAll and $npm_package_swggTags0 if package-name has -all suffix</tspan>

<tspan x="10" y="1578">- dereference body-sub-schema.$ref in ui-documentation</tspan>

<tspan x="10" y="1594">- fix failed semanticRequired validation-error in ui</tspan>

<tspan x="10" y="1610">- update function dbFieldRandomCreate to use schemaP.default if available, in modeNotRandom</tspan>

<tspan x="10" y="1626">- update function normalizeSwaggerJson to override tag.description with x-swgg-tags0-override</tspan>

<tspan x="10" y="1642"></tspan>

<tspan x="10" y="1658">2018-01-13 19:12:58 +0700</tspan>

<tspan x="10" y="1674">[npm publish] - npm publish 2018.1.12</tspan>

<tspan x="10" y="1690">- do not auto-fill input if default value is null</tspan>

<tspan x="10" y="1706">- remove unused datatable link</tspan>

<tspan x="10" y="1722"></tspan>

<tspan x="10" y="1738">2017-11-21 12:42:25 +0800</tspan>

<tspan x="10" y="1754">[npm publish] - npm publish 2017.11.20</tspan>

<tspan x="10" y="1770">- add param operation['x-swgg-consumes0'], operation['x-swgg-notRequired'], and operation['x-swg\</tspan>
<tspan x="10" y="1786">g-required']</tspan>

<tspan x="10" y="1802">- add operation['x-swgg-consumes0'] = 'application/xml' support for wechat-pay</tspan>

<tspan x="10" y="1818">- allow function dbRowListRandomCreate to recurse objects and stop with modeSubdoc flag</tspan>

<tspan x="10" y="1834">- disable submit-button on input-validation-error</tspan>

<tspan x="10" y="1850">- fix in.body parameter not showing validation-error-message</tspan>

<tspan x="10" y="1866">- update ui to show required attribute only in 'name and desscription' section</tspan>

<tspan x="10" y="1882">- use textarea for string (json)</tspan>

<tspan x="10" y="1898"></tspan>

<tspan x="10" y="1914">2017-11-16 21:17:57 +0800</tspan>

<tspan x="10" y="1930">[npm publish] - npm publish 2017.11.15</tspan>

<tspan x="10" y="1946">- add env tags filter $npm_package_swggTags0</tspan>

<tspan x="10" y="1962">- add function assertSwaggerValidate</tspan>

<tspan x="10" y="1978">- allow function dbRowListRandomCreate to recurse objects and stop with modeSubdoc flag</tspan>

<tspan x="10" y="1994">- function templateRender - default to htmlSafe and override with flag notHtmlSafe</tspan>

<tspan x="10" y="2010">- ui - add cross-browser multiline placeholder support for textarea</tspan>

<tspan x="10" y="2026">- ui - add dynamic input validation</tspan>

<tspan x="10" y="2042">- ui - include resource description from header in operationList</tspan>

<tspan x="10" y="2058">- ui - merge template templateUiResponseAjax into templateUiOperation</tspan>

<tspan x="10" y="2074">- ui - select pre-text when clicked</tspan>

<tspan x="10" y="2090">- ui - truncate resource long-descriptions</tspan>

<tspan x="10" y="2106">- ui - remove eventListeners in operation-div (and rely on resource-ui eventListeners)</tspan>

<tspan x="10" y="2122">- rename function uiRender -&gt; uiRenderAll</tspan>

<tspan x="10" y="2138">- rename property x-swgg-urlApp -&gt; x-swgg-downloadStandaloneApp</tspan>

<tspan x="10" y="2154">- update function normalizeSwaggerJson to override swaggerJson with x-swgg-tags0-override</tspan>

<tspan x="10" y="2170"></tspan>

<tspan x="10" y="2186">2017-11-08 02:30:09 +0800</tspan>

<tspan x="10" y="2202">[npm publish] - npm publish 2017.11.7</tspan>

<tspan x="10" y="2218">- add responsive css to header</tspan>

<tspan x="10" y="2234">- merge properties paramDef.x-swgg-example and paramDef.default -&gt; paramDef.default</tspan>

<tspan x="10" y="2250">- modify function normalizeSwaggerParamDict to only set default-value if required (or modeDefaul\</tspan>
<tspan x="10" y="2266">t flag is enabled)</tspan>

<tspan x="10" y="2282">- rename x-swgg-definitionsParameter -&gt; #/parameters</tspan>

<tspan x="10" y="2298">- remove unused apiAjax defer-routine</tspan>

<tspan x="10" y="2314">- revamp normalizers normalizeSwaggerJson, normalizeSwaggerParamDict</tspan>

<tspan x="10" y="2330">- revamp validators validateBySwaggerJson, validateBySwaggerParameters, validateBySwaggerSchema</tspan>

<tspan x="10" y="2346">- validate schema.default</tspan>

<tspan x="10" y="2362"></tspan>

<tspan x="10" y="2378">2017-10-29 03:37:37 +0800</tspan>

<tspan x="10" y="2394">[npm publish] - npm publish 2017.10.28</tspan>

<tspan x="10" y="2410">- add jsonp ability to function swgg.apiUpdate</tspan>

<tspan x="10" y="2426">- add property swaggerJson['x-swgg-operationIdFromPath']</tspan>

<tspan x="10" y="2442">- add property swaggerJson.info['x-swgg-urlApp'] and 'download standalone app' link</tspan>

<tspan x="10" y="2458">- allow deferring of function apiAjax to wait for remote swaggerJson</tspan>

<tspan x="10" y="2474">- document apiDict.ajax methods</tspan>

<tspan x="10" y="2490">- rename pathObject._idAlias -&gt; pathObject._idBackend</tspan>

<tspan x="10" y="2506">- rename pathObject._idField -&gt; pathObject._idName</tspan>

<tspan x="10" y="2522">- rename pathObject._keyCrud -&gt; pathObject._crudType</tspan>

<tspan x="10" y="2538">- rename pathObject._keyPath -&gt; pathObject._methodPath</tspan>

<tspan x="10" y="2554">- rename request.swgg.crud.operationId -&gt; request.swgg.crud.crudType</tspan>

<tspan x="10" y="2570">- split pathObject.operationId into pathObject.crudType from pathObject.operationId</tspan>

<tspan x="10" y="2586"></tspan>

<tspan x="10" y="2602">2017-10-25 00:25:48 +0800</tspan>

<tspan x="10" y="2618">[npm publish] - npm publish 2017.10.24</tspan>

<tspan x="10" y="2634">- remove datatable for future revamp</tspan>

<tspan x="10" y="2650">- add feature $SWGG_TAGS0_FILTER to filter x-swgg-tags0</tspan>

<tspan x="10" y="2666">- add feature x-swgg-operationIdFromPath to auto-create operationId from path</tspan>

<tspan x="10" y="2682">- fix property items.enum not rendering multi-select input bug</tspan>

<tspan x="10" y="2698">- fix missing resource.id bug</tspan>

<tspan x="10" y="2714">- rename function normalizeParamDictSwagger -&gt; swaggerParamDictNormalize</tspan>

<tspan x="10" y="2730">- rename property pathObject._operationId -&gt; pathObject._keyCrud</tspan>

<tspan x="10" y="2746">- rename property swgg.pathname -&gt; swgg.keyPath</tspan>

<tspan x="10" y="2762">- remove operationId display from ui</tspan>

<tspan x="10" y="2778"></tspan>

<tspan x="10" y="2794">2017-10-19 01:09:50 +0800</tspan>

<tspan x="10" y="2810">[npm publish] - npm publish 2017.10.17</tspan>

<tspan x="10" y="2826">- auto-scroll to first operation if hashbang fails</tspan>

<tspan x="10" y="2842">- fix client-api initialization in browser</tspan>

<tspan x="10" y="2858">- fix bug where missing required-param in ui does not give error</tspan>

<tspan x="10" y="2874"></tspan>

<tspan x="10" y="2890">2017-10-13 02:44:27 +0800</tspan>

<tspan x="10" y="2906">[npm publish] - npm publish 2017.10.11</tspan>

<tspan x="10" y="2922">- add swgg credit to bottom on assets.swgg.html</tspan>

<tspan x="10" y="2938">- add top-level swagger-json property x-definitionsParameters</tspan>

<tspan x="10" y="2954">- add param-property x-host</tspan>

<tspan x="10" y="2970">- document library-call equivalent to curl-request</tspan>

<tspan x="10" y="2986">- rename function swgg.apiDictUpdate -&gt; swgg.apiUpdate</tspan>

<tspan x="10" y="3002"></tspan>

<tspan x="10" y="3018">2017-10-06 19:59:42 +0800</tspan>

<tspan x="10" y="3034">[npm publish] - npm publish 2017.10.5</tspan>

<tspan x="10" y="3050">- add api-key form-input, and persist in localStorage</tspan>

<tspan x="10" y="3066">- add param-property 'x-apiKey'</tspan>

<tspan x="10" y="3082">- add param-property 'x-example' (similar to 'default' param-property, except used in input-plac\</tspan>
<tspan x="10" y="3098">eholder)</tspan>

<tspan x="10" y="3114">- allow degenerate method-path's by appending # comment</tspan>

<tspan x="10" y="3130">- fix double '//' bug when basePath is '/'</tspan>

<tspan x="10" y="3146">- rename ajaxForwardProxyUrlTest to githubForwardProxyUrlTest</tspan>

<tspan x="10" y="3162"></tspan>

<tspan x="10" y="3178">2017-07-26 07:28:11 +0800</tspan>

<tspan x="10" y="3194">[npm publish] - npm publish 2017.7.24</tspan>

<tspan x="10" y="3210">- add url property x-homepage in swagger.json to url-link info.title</tspan>

<tspan x="10" y="3226">- auto-scroll to hashtag of expanded element</tspan>

<tspan x="10" y="3242">- chrome bug-workaround and w3 validation - replace &lt;form2&gt; tag with &lt;div class=form&gt;</tspan>

<tspan x="10" y="3258">- streamline server logs</tspan>

<tspan x="10" y="3274"></tspan>

<tspan x="10" y="3290">2017-07-16 03:25:36 +0800</tspan>

<tspan x="10" y="3306">[npm publish] - npm publish 2017.7.1</tspan>

<tspan x="10" y="3322">- auto-build README section 'table of contents'</tspan>

<tspan x="10" y="3338">- enhance github-cors with function githubCorsUrlOverride</tspan>

<tspan x="10" y="3354">- move functions uiAnimateSlideXxx from file lib.swgg.js to file assets.utility2.rollup.js</tspan>

<tspan x="10" y="3370"></tspan>

<tspan x="10" y="3386">2017-05-22 16:55:49 +0800</tspan>

<tspan x="10" y="3402">[npm publish] - npm publish 2017.5.20</tspan>

<tspan x="10" y="3418">- add url-search param modeSwaggerJsonUrl to override assets.swgg.swagger.json</tspan>

<tspan x="10" y="3434">- deduplicate files assets.swgg.html and assets.swgg.rollup.js</tspan>

<tspan x="10" y="3450">- hardcode server-based swagger.json as assets.swgg.swagger.server.json</tspan>

<tspan x="10" y="3466">- merge assets.swgg.rollup.js into assets.utility2.rollup.js</tspan>

<tspan x="10" y="3482">- rename api/v0/swagger.json -&gt; assets.swgg.swagger.server.json</tspan>

<tspan x="10" y="3498">- rename assets.swgg.petstore.json -&gt; assets.swgg.swagger.petstore.json</tspan>

<tspan x="10" y="3514">- add README section 'internal screen-capture'</tspan>

<tspan x="10" y="3530">- add README section 'quickstart standalone app'</tspan>

<tspan x="10" y="3546">- rename README section 'quickstart web example' -&gt; 'quickstart example.js'</tspan>

<tspan x="10" y="3562"></tspan>

<tspan x="10" y="3578">2017-05-02 12:58:31 +0800</tspan>

<tspan x="10" y="3594">[npm publish] - npm publish 2017.5.1</tspan>

<tspan x="10" y="3610">- update utility2 static-dependency in assets.swgg.rollup.js</tspan>

<tspan x="10" y="3626"></tspan>

<tspan x="10" y="3642">2017-03-30 19:19:56 +0800</tspan>

<tspan x="10" y="3658">[npm publish] - update utility2 static-dependency in assets.swgg.rollup.js</tspan>

<tspan x="10" y="3674">- add loading-text when resource is loading</tspan>

<tspan x="10" y="3690">- add validation for phone format-string</tspan>

<tspan x="10" y="3706"></tspan>

<tspan x="10" y="3722">2017-02-21 02:47:57 +0800</tspan>

<tspan x="10" y="3738">- npm publish 2017.2.20</tspan>

<tspan x="10" y="3754">- create published-alias oai-client oai-server swagger-client-lite swagger-lite swagger-server-l\</tspan>
<tspan x="10" y="3770">ite</tspan>

<tspan x="10" y="3786">- rename dom-element #outputTextareaStdout -&gt; #outputTextareaStdout1</tspan>

<tspan x="10" y="3802">- replace env var npm_package_name with npm_package_nameAlias in istanbul code-coverage</tspan>

<tspan x="10" y="3818"></tspan>

<tspan x="10" y="3834">2017-02-19 00:15:20 +0800</tspan>

<tspan x="10" y="3850">- npm publish 2017.2.17</tspan>

<tspan x="10" y="3866">- do not auto-uglify js-assets</tspan>

<tspan x="10" y="3882">- revamp README.md</tspan>

<tspan x="10" y="3898">- update lib.utility2</tspan>

<tspan x="10" y="3914"></tspan>

<tspan x="10" y="3930">2017-02-06 21:12:28 +0800</tspan>

<tspan x="10" y="3946">- npm publish 2017.2.6</tspan>

<tspan x="10" y="3962">- allow swagger-json url to be changed</tspan>

<tspan x="10" y="3978">- allow swagger-ui operation to appear in multiple tags</tspan>

<tspan x="10" y="3994">- rename assets.lib.swgg.* to assets.swgg.*</tspan>

<tspan x="10" y="4010">- merge files lib.* into standaalone file assets.swgg.rollup.js</tspan>

<tspan x="10" y="4026">- merge files lib.swgg.* into lib.swgg.js</tspan>

<tspan x="10" y="4042"></tspan>

<tspan x="10" y="4058">2017-01-12 12:41:11 +0800</tspan>

<tspan x="10" y="4074">- npm publish 2017.1.12</tspan>

<tspan x="10" y="4090">- update files lib.utility2.*</tspan>

<tspan x="10" y="4106">- update documentation</tspan>

<tspan x="10" y="4122"></tspan>

<tspan x="10" y="4138">2016-12-31 19:25:20 +0800</tspan>

<tspan x="10" y="4154">- npm publish 2016.12.30</tspan>

<tspan x="10" y="4170">- revamp swgg.ui.js</tspan>

<tspan x="10" y="4186"></tspan>

<tspan x="10" y="4202">2016-12-26 15:05:22 +0800</tspan>

<tspan x="10" y="4218">- rename file lib.swgg.json-schema.json</tspan>

<tspan x="10" y="4234">- rename file lib.swgg.petstore.json</tspan>

<tspan x="10" y="4250">- rename file lib.swgg.schema.json</tspan>

<tspan x="10" y="4266">- rename file lib.swgg.ui.js</tspan>

<tspan x="10" y="4282"></tspan>

<tspan x="10" y="4298">2016-12-26 12:13:11 +0800</tspan>

<tspan x="10" y="4314">- npm publish 2016.12.25</tspan>

<tspan x="10" y="4330">- add spec-compliant collectionFormat parameter for arrays</tspan>

<tspan x="10" y="4346">- merge github-crud into this package</tspan>

<tspan x="10" y="4362">- add heroku-postbuild npm-script</tspan>

<tspan x="10" y="4378"></tspan>

<tspan x="10" y="4394">2016-12-11 12:22:05 +0800</tspan>

<tspan x="10" y="4410">- fix shBuildDoc accidentally adding coverage to doc</tspan>

<tspan x="10" y="4426"></tspan>

<tspan x="10" y="4442">2016-12-11 12:05:29 +0800</tspan>

<tspan x="10" y="4458">- npm publish 2016.12.1</tspan>

<tspan x="10" y="4474">- merge utility2 and swgg namespace into local namespace</tspan>

<tspan x="10" y="4490">- revamp user-login / user-logout to use standard json-web-encryption token</tspan>

<tspan x="10" y="4506"></tspan>

<tspan x="10" y="4522">2016-11-30 17:45:55 +0800</tspan>

<tspan x="10" y="4538">- rename package from swagger-lite -&gt; swgg</tspan>

<tspan x="10" y="4554"></tspan>

<tspan x="10" y="4570">2016-11-30 02:48:10 +0800</tspan>

<tspan x="10" y="4586">- npm publish 2016.11.2</tspan>

<tspan x="10" y="4602">- merge swgg.middlewareJsonpStateInit into utility2._middlewareJsonpStateInit</tspan>

<tspan x="10" y="4618">- db - fix persistence-cancel handling-behavior</tspan>

<tspan x="10" y="4634">- utility2 - add env npm_package_nameAlias</tspan>

<tspan x="10" y="4650"></tspan>

<tspan x="10" y="4666">2016-11-23 11:55:35 +0800</tspan>

<tspan x="10" y="4682">- npm publish 2016.11.1</tspan>

<tspan x="10" y="4698">- make this package dependency-less</tspan>

<tspan x="10" y="4714">- rename files index.* -&gt; lib.swgg.*</tspan>

<tspan x="10" y="4730">- rename field _timeModified -&gt; _timeUpdated</tspan>

<tspan x="10" y="4746">- fix cdn-links</tspan>

<tspan x="10" y="4762"></tspan>

<tspan x="10" y="4778">2016-11-21 10:22:45 +0800</tspan>

<tspan x="10" y="4794">- npm publish 2016.10.2</tspan>

<tspan x="10" y="4810">- temporary fix for chrome render bug - https://bugs.chromium.org/p/chromium/issues/detail?id=66\</tspan>
<tspan x="10" y="4826">0671</tspan>

<tspan x="10" y="4842">- rename api-suffix *KeyUnique -&gt; *Id</tspan>

<tspan x="10" y="4858">- rename field createdAt -&gt; _timeCreated</tspan>

<tspan x="10" y="4874">- rename field updatedAt -&gt; _timeModified</tspan>

<tspan x="10" y="4890"></tspan>

<tspan x="10" y="4906">2016-10-17 21:10:49 +0800</tspan>

<tspan x="10" y="4922">- npm publish 2016.10.1</tspan>

<tspan x="10" y="4938">- migrate db from nedb-lite to db-lite</tspan>

<tspan x="10" y="4954">- streamline tests</tspan>

<tspan x="10" y="4970"></tspan>

<tspan x="10" y="4986">2016-10-02 12:04:31 +0800</tspan>

<tspan x="10" y="5002">- npm publish 2016.9.1</tspan>

<tspan x="10" y="5018">- update utility2 dependency</tspan>

<tspan x="10" y="5034"></tspan>

<tspan x="10" y="5050">2016-08-27 11:05:16 +0800</tspan>

<tspan x="10" y="5066">- npm publish 2016.8.1</tspan>

<tspan x="10" y="5082">- allow file export / import of nedb-database</tspan>

<tspan x="10" y="5098">- migrate nedb-api from swagger-lite to utility2</tspan>

<tspan x="10" y="5114">- rename collectDoc to dbRow and collection to dbTable</tspan>

<tspan x="10" y="5130"></tspan>

<tspan x="10" y="5146">2016-08-07 22:39:06 +0200</tspan>

<tspan x="10" y="5162">- npm publish 2016.7.2</tspan>

<tspan x="10" y="5178">- deploy standalone-app to heroku</tspan>

<tspan x="10" y="5194">- rename local.utility2.middlewareJsonpStateGet to local.utility2.middlewareJsonpStateInit</tspan>

<tspan x="10" y="5210"></tspan>

<tspan x="10" y="5226">2016-07-31 15:02:39 +0200</tspan>

<tspan x="10" y="5242">- npm publish 2016.7.1</tspan>

<tspan x="10" y="5258">- replace lib bcrypt and lib cryptojs with lib sjcl</tspan>

<tspan x="10" y="5274"></tspan>

<tspan x="10" y="5290">2016-07-01 03:17:59 +0200</tspan>

<tspan x="10" y="5306">- npm publish 2016.5.4</tspan>

<tspan x="10" y="5322">- fix internal tests for heroku backend</tspan>

<tspan x="10" y="5338"></tspan>

<tspan x="10" y="5354">2016-06-15 17:19:02 +0300</tspan>

<tspan x="10" y="5370">- npm publish 2016.5.2</tspan>

<tspan x="10" y="5386">- deploy standalone app to heroku test-server</tspan>

<tspan x="10" y="5402">- remove nedb-lite dependency</tspan>

<tspan x="10" y="5418">- add minified asset assets.app.min.js</tspan>

<tspan x="10" y="5434">- add 'run internal test' button in webpage</tspan>

<tspan x="10" y="5450">- add env var npm_config_mode_backend to disable utility2.serverLocalUrlTest</tspan>

<tspan x="10" y="5466"></tspan>

<tspan x="10" y="5482">2016-06-12 03:58:24 +0300</tspan>

<tspan x="10" y="5498">- npm publish 2016.5.2</tspan>

<tspan x="10" y="5514">- add standalone-app download-link in test-page</tspan>

<tspan x="10" y="5530">- ui - add button to reset nedb database</tspan>

<tspan x="10" y="5546"></tspan>

<tspan x="10" y="5562">2016-06-08 19:00:37 +0300</tspan>

<tspan x="10" y="5578">- npm publish 2016.5.1</tspan>

<tspan x="10" y="5594">- merge admin-ui into swagger-ui</tspan>

<tspan x="10" y="5610">- ui - re-implement reload feature</tspan>

<tspan x="10" y="5626">- move all swagger-backend-config into top-level swagger-property 'x-swgg-apiDict'</tspan>

<tspan x="10" y="5642">- remove unused postinstall script</tspan>

<tspan x="10" y="5658"></tspan>

<tspan x="10" y="5674">2016-05-30 15:00:02 +0300</tspan>

<tspan x="10" y="5690">- npm publish 2016.4.3</tspan>

<tspan x="10" y="5706">- datatable - add datatable resource-view</tspan>

<tspan x="10" y="5722">- datatable - add pagination</tspan>

<tspan x="10" y="5738">- datatable - add row deletion</tspan>

<tspan x="10" y="5754"></tspan>

<tspan x="10" y="5770">2016-05-20 17:44:04 +0300</tspan>

<tspan x="10" y="5786">- npm publish 2016.4.2</tspan>

<tspan x="10" y="5802">- replace swagger-tools dependency with function swgg.validateBySwagger</tspan>

<tspan x="10" y="5818">- validation - validate schema.default</tspan>

<tspan x="10" y="5834">- validation - validate schema.anyOf</tspan>

<tspan x="10" y="5850">- validation - replace x-swgg-inherit with schema.allOf</tspan>

<tspan x="10" y="5866">- rename operation crudFile* to file*</tspan>

<tspan x="10" y="5882">- rename operation crudUser* to user*</tspan>

<tspan x="10" y="5898">- add file lib.swagger.schema.json from http://swagger.io/v2/schema.json</tspan>

<tspan x="10" y="5914">- add extra constraints to function swgg.collectDocListRandomCreate</tspan>

<tspan x="10" y="5930">- ui - input element's valueEncoded can only be '', null, or undefined</tspan>

<tspan x="10" y="5946">- replace function swgg.schemaDereference with swgg.schemaNormalize</tspan>

<tspan x="10" y="5962"></tspan>

<tspan x="10" y="5978">2016-05-12 21:06:05 +0300</tspan>

<tspan x="10" y="5994">- npm publish 2016.4.1</tspan>

<tspan x="10" y="6010">- fix bug when a document's id is zero</tspan>

<tspan x="10" y="6026">- streamline ui</tspan>

<tspan x="10" y="6042">- remove Backbone, Handlebars, and jQuery dependencies from lib.swagger-ui.js</tspan>

<tspan x="10" y="6058">- enable multiple api endpoints with same operationId, but unique keyUnique</tspan>

<tspan x="10" y="6074">- add hooks middlewareCrudPre and middlewareCrudPost</tspan>

<tspan x="10" y="6090">- merge api crudCreateOrReplaceOne into crudCreateOrReplaceOneByKeyUnique</tspan>

<tspan x="10" y="6106">- merge api crudCreateOrUpdateOne and crudCreateOrUpdateOneByKeyUnique into crudUpdateOneByKeyUn\</tspan>
<tspan x="10" y="6122">ique</tspan>

<tspan x="10" y="6138"></tspan>

<tspan x="10" y="6154">2016-04-28 13:18:23 +0300</tspan>

<tspan x="10" y="6170">- npm publish 2016.3.1</tspan>

<tspan x="10" y="6186">- implement api GET /user/login</tspan>

<tspan x="10" y="6202">- implement api GET /user/logout</tspan>

<tspan x="10" y="6218">- add api crudUserLogout</tspan>

<tspan x="10" y="6234">- encode arrays as json-string in query-param</tspan>

<tspan x="10" y="6250">- fix crudFileGetOneByKeyUnique for serverLocal</tspan>

<tspan x="10" y="6266">- fix 0 statusCode in userLoginByPassword and userLogout api</tspan>

<tspan x="10" y="6282">- remove external dependency animate.css</tspan>

<tspan x="10" y="6298"></tspan>

<tspan x="10" y="6314">2016-04-20 01:32:39 +0300</tspan>

<tspan x="10" y="6330">- npm publish 2016.2.3</tspan>

<tspan x="10" y="6346">- split swgg.middlewareValidate into swgg.middlewareRouter and swgg.middlewareValidate</tspan>

<tspan x="10" y="6362">- merge collection BuiltinFile into collection TestModelCrud in example.js</tspan>

<tspan x="10" y="6378">- merge collection BuiltinUser into collection User in example.js</tspan>

<tspan x="10" y="6394">- add 'multipleOf' number-constraint to function swgg.collectDocRandomCreate</tspan>

<tspan x="10" y="6410">- add function swgg.collectDocListRandomCreate</tspan>

</text>
</svg>
